<svg xmlns="http://www.w3.org/2000/svg" viewBox="0 0 20 20">
  <path d="M 4.3339844 4 L 3.2246094 5.6660156 L 1.8339844 5.6660156 C 1.3756511 5.6660156 1 6.0416666 1 6.5 L 1 12.333984 C 1 12.792318 1.3756511 13.166016 1.8339844 13.166016 L 10.166016 13.166016 C 10.62435 13.166016 11 12.792318 11 12.333984 L 11 12.154297 L 8.0644531 9.1972656 C 7.9636343 10.253489 7.0824936 11.083984 6 11.083984 C 4.8500001 11.083984 3.9160156 10.149999 3.9160156 9 C 3.9160156 7.8499995 4.8500001 6.9160156 6 6.9160156 C 7.1325933 6.9160156 8.05046 7.8232465 8.078125 8.9492188 L 10.898438 6.125 C 10.759609 5.8566437 10.487512 5.6660156 10.166016 5.6660156 L 8.7753906 5.6660156 L 7.6660156 4 L 4.3339844 4 z M 15.845703 8.1660156 L 13.349609 10.666016 L 14.333984 10.666016 L 14.333984 14.875 C 14.200651 14.85 14.057682 14.833984 13.916016 14.833984 C 12.766017 14.833984 11.833984 15.766016 11.833984 16.916016 C 11.833984 18.066016 12.766017 19 13.916016 19 C 15.066016 19 16 18.066016 16 16.916016 L 16 8.1660156 L 15.845703 8.1660156 z M 8.5 14 L 8.5 14.875 C 8.3666668 14.85 8.2256512 14.833984 8.0839844 14.833984 C 6.9339844 14.833984 6 15.766016 6 16.916016 C 6 18.066016 6.9339844 19 8.0839844 19 C 9.2339842 19 10.166016 18.066016 10.166016 16.916016 L 10.166016 14 L 8.5 14 z " />
  <path d="m 11.000408,0.99844212 8.000001,0 0,8.00000038 -2,-1 0,-3.0800003 -5.600001,5.5899988 -1.4099996,-1.4099985 6.0900006,-6.1000003 -4.080001,0 z" />
</svg>